<svg width="40" height="40" viewBox="0 0 40 40" fill="none" xmlns="http://www.w3.org/2000/svg">
<path d="M10 13.75C10 13.2575 10.097 12.7699 10.2855 12.3149C10.4739 11.86 10.7501 11.4466 11.0983 11.0983C11.4466 10.7501 11.86 10.4739 12.3149 10.2855C12.7699 10.097 13.2575 10 13.75 10C14.2425 10 14.7301 10.097 15.1851 10.2855C15.64 10.4739 16.0534 10.7501 16.4017 11.0983C16.7499 11.4466 17.0261 11.86 17.2145 12.3149C17.403 12.7699 17.5 13.2575 17.5 13.75C17.5 14.7446 17.1049 15.6984 16.4017 16.4017C15.6984 17.1049 14.7446 17.5 13.75 17.5C12.7554 17.5 11.8016 17.1049 11.0983 16.4017C10.3951 15.6984 10 14.7446 10 13.75ZM13.75 7.5C12.0924 7.5 10.5027 8.15848 9.33058 9.33058C8.15848 10.5027 7.5 12.0924 7.5 13.75C7.5 15.4076 8.15848 16.9973 9.33058 18.1694C10.5027 19.3415 12.0924 20 13.75 20C15.4076 20 16.9973 19.3415 18.1694 18.1694C19.3415 16.9973 20 15.4076 20 13.75C20 12.0924 19.3415 10.5027 18.1694 9.33058C16.9973 8.15848 15.4076 7.5 13.75 7.5ZM26.25 15C26.25 14.337 26.5134 13.7011 26.9822 13.2322C27.4511 12.7634 28.087 12.5 28.75 12.5C29.413 12.5 30.0489 12.7634 30.5178 13.2322C30.9866 13.7011 31.25 14.337 31.25 15C31.25 15.663 30.9866 16.2989 30.5178 16.7678C30.0489 17.2366 29.413 17.5 28.75 17.5C28.087 17.5 27.4511 17.2366 26.9822 16.7678C26.5134 16.2989 26.25 15.663 26.25 15ZM28.75 10C27.4239 10 26.1521 10.5268 25.2145 11.4645C24.2768 12.4021 23.75 13.6739 23.75 15C23.75 16.3261 24.2768 17.5979 25.2145 18.5355C26.1521 19.4732 27.4239 20 28.75 20C30.0761 20 31.3479 19.4732 32.2855 18.5355C33.2232 17.5979 33.75 16.3261 33.75 15C33.75 13.6739 33.2232 12.4021 32.2855 11.4645C31.3479 10.5268 30.0761 10 28.75 10ZM3.75 26.25C3.75 25.2554 4.14509 24.3016 4.84835 23.5983C5.55161 22.8951 6.50544 22.5 7.5 22.5H20C20.9946 22.5 21.9484 22.8951 22.6517 23.5983C23.3549 24.3016 23.75 25.2554 23.75 26.25V26.53C23.7474 26.6445 23.739 26.7588 23.725 26.8725C23.5825 28.0845 23.1315 29.2396 22.415 30.2275C21.0475 32.115 18.4475 33.75 13.75 33.75C9.055 33.75 6.455 32.115 5.0825 30.2275C4.3669 29.2394 3.91672 28.0843 3.775 26.8725C3.76255 26.7587 3.75422 26.6444 3.75 26.53V26.485V26.25ZM6.25 26.475V26.4925L6.26 26.615C6.35682 27.3889 6.64746 28.1259 7.105 28.7575C7.92 29.8775 9.695 31.25 13.75 31.25C17.805 31.25 19.58 29.8775 20.395 28.7575C20.8525 28.1259 21.1432 27.3889 21.24 26.615C21.2445 26.5734 21.2478 26.5317 21.25 26.49V26.25C21.25 25.9185 21.1183 25.6005 20.8839 25.3661C20.6495 25.1317 20.3315 25 20 25H7.5C7.16848 25 6.85054 25.1317 6.61612 25.3661C6.3817 25.6005 6.25 25.9185 6.25 26.25V26.475ZM28.75 31.25C27.28 31.25 26.075 31.025 25.1 30.655C25.5008 29.9208 25.8042 29.1376 26.0025 28.325C26.6725 28.5775 27.5625 28.75 28.75 28.75C31.5475 28.75 32.695 27.795 33.2 27.085C33.4952 26.6709 33.6825 26.1897 33.745 25.685L33.75 25.615C33.7474 25.451 33.6804 25.2946 33.5634 25.1795C33.4465 25.0645 33.289 25 33.125 25H26.125C25.9404 24.0934 25.5561 23.2394 25 22.5H33.125C34.85 22.5 36.25 23.9 36.25 25.625V25.6675C36.247 25.7586 36.2403 25.8495 36.23 25.94C36.1241 26.877 35.7817 27.7717 35.235 28.54C34.18 30.0175 32.2025 31.25 28.75 31.25Z" fill="white"/>
</svg>
