<svg width="40" height="40" viewBox="0 0 40 40" fill="none" xmlns="http://www.w3.org/2000/svg">
<path d="M8.21635 8.21667C6.66631 9.76226 5.43695 11.5989 4.59891 13.6211C3.76087 15.6432 3.33066 17.8111 3.33302 20C3.33302 24.6 5.19968 28.7667 8.21635 31.7833L10.5664 29.4333C9.32395 28.1976 8.33942 26.7273 7.66992 25.108C7.00042 23.4886 6.6593 21.7523 6.66635 20C6.66635 16.3167 8.14968 12.9667 10.5664 10.5667L8.21635 8.21667ZM31.783 8.21667L29.433 10.5667C30.6741 11.8034 31.6578 13.2738 32.3273 14.893C32.9967 16.5121 33.3385 18.2479 33.333 20C33.333 23.7 31.8497 27.0333 29.433 29.4333L31.783 31.7833C33.3331 30.2378 34.5624 28.4011 35.4005 26.3789C36.2385 24.3568 36.6687 22.1889 36.6664 20C36.6664 15.4 34.7997 11.2333 31.783 8.21667ZM12.933 12.9333C12.0027 13.8599 11.2646 14.9613 10.7612 16.174C10.2578 17.3867 9.99902 18.687 9.99968 20C9.99968 22.75 11.1164 25.25 12.933 27.0667L15.283 24.7167C14.6634 24.0976 14.1721 23.3623 13.8375 22.5529C13.5029 21.7434 13.3314 20.8759 13.333 20C13.333 18.15 14.083 16.4833 15.283 15.2833L12.933 12.9333ZM27.0663 12.9333L24.7164 15.2833C25.336 15.9024 25.8272 16.6377 26.1619 17.4472C26.4965 18.2566 26.6679 19.1241 26.6663 20C26.6663 21.85 25.9163 23.5167 24.7164 24.7167L27.0663 27.0667C27.9967 26.1401 28.7348 25.0388 29.2381 23.826C29.7415 22.6133 30.0003 21.3131 29.9997 20C29.9997 17.25 28.883 14.75 27.0663 12.9333ZM19.9997 16.6667C19.1156 16.6667 18.2678 17.0179 17.6427 17.643C17.0175 18.2681 16.6664 19.116 16.6664 20C16.6664 20.8841 17.0175 21.7319 17.6427 22.357C18.2678 22.9822 19.1156 23.3333 19.9997 23.3333C20.8837 23.3333 21.7316 22.9822 22.3567 22.357C22.9818 21.7319 23.333 20.8841 23.333 20C23.333 19.116 22.9818 18.2681 22.3567 17.643C21.7316 17.0179 20.8837 16.6667 19.9997 16.6667Z" fill="white"/>
</svg>
